<svg width="360" height="360" viewBox="0 0 360 360" fill="none" xmlns="http://www.w3.org/2000/svg">
<path d="M48.9339 287.188L40.4189 360H37.6268L46.141 287.188H48.9339Z" fill="#D2DCFF"/>
<path d="M11.3071 287.187L10.3495 295.375L2.79288 359.999H0L7.594 295.055L8.51416 287.187H11.3071Z" fill="#D2DCFF"/>
<path d="M48.9339 359.999H46.141L44.964 349.929L43.5675 337.989L38.9751 298.714L37.6268 287.187H40.4197L41.8062 299.043L44.964 326.047L46.3596 337.987L48.9339 359.999Z" fill="#D2DCFF"/>
<path d="M86.5606 359.999H83.7677L77.1595 303.484H77.1587L75.2535 287.187H78.0464L79.989 303.799L86.5606 359.999Z" fill="#D2DCFF"/>
<path d="M11.4436 238.513H8.65063V282.557H11.4436V238.513Z" fill="#D2DCFF"/>
<path d="M49.3895 238.513H46.5974V282.557H49.3895V238.513Z" fill="#D2DCFF"/>
<path d="M79.2184 282.557H40.8502C42.0896 282.557 43.0945 283.593 43.0945 284.872C43.0945 286.15 42.0896 287.187 40.8502 287.187H79.2184C80.4578 287.187 81.4627 286.15 81.4627 284.872C81.4627 283.593 80.4578 282.557 79.2184 282.557Z" fill="#D2DCFF"/>
<path d="M43.0946 284.872C43.0946 283.593 42.0896 282.557 40.8503 282.557H11.5024H7.72208C6.48274 282.557 5.47778 283.593 5.47778 284.872C5.47778 286.15 6.48274 287.187 7.72208 287.187H11.5024H40.8503C42.0896 287.187 43.0946 286.15 43.0946 284.872Z" fill="#86A2E2"/>
<path d="M51.6711 205.367H6.36884C4.64157 205.367 3.24097 206.812 3.24097 208.593V235.287C3.24097 237.068 4.64157 238.513 6.36884 238.513H51.6711C53.3984 238.513 54.799 237.068 54.799 235.287V208.593C54.799 206.811 53.3984 205.367 51.6711 205.367Z" fill="#D2DCFF"/>
<path d="M11.3072 287.187L10.3496 295.375C9.3405 295.258 8.41871 295.151 7.59497 295.056L8.51513 287.187H11.3072Z" fill="#AEC3FF"/>
<path d="M40.4197 287.187L41.8062 299.044C40.8577 298.935 39.9135 298.824 38.9751 298.715L37.6268 287.187H40.4197Z" fill="#AEC3FF"/>
<path d="M79.989 303.799C79.088 303.699 78.1429 303.594 77.1595 303.484H77.1587L75.2535 287.187H78.0464L79.989 303.799Z" fill="#AEC3FF"/>
<path d="M8.65063 238.513H11.4436V244.596L8.65063 244.277V238.513Z" fill="#AEC3FF"/>
<path d="M49.3895 238.513V248.929L46.5974 248.61V238.513H49.3895Z" fill="#AEC3FF"/>
<path d="M47.1167 44.949H7.92554V94.113H47.1167V44.949Z" fill="#D2DCFF"/>
<path d="M45.3208 46.5027H9.72131V92.5595H45.3208V46.5027Z" fill="#D2DCFF"/>
<path d="M9.72131 80.3543L21.306 68.4048L27.088 74.3697L37.9653 63.1499L45.3216 70.7377V92.5595H9.72131V80.3543Z" fill="#AEC3FF"/>
<path d="M20.3747 61.706C22.0898 61.706 23.4801 60.272 23.4801 58.5029C23.4801 56.7338 22.0898 55.2996 20.3747 55.2996C18.6597 55.2996 17.2693 56.7338 17.2693 58.5029C17.2693 60.272 18.6597 61.706 20.3747 61.706Z" fill="#AEC3FF"/>
<path d="M260.276 141.245H130.357C126.701 141.245 123.738 138.188 123.738 134.417V6.82756C123.738 3.05673 126.701 0 130.357 0H260.276C263.932 0 266.895 3.05673 266.895 6.82756V134.417C266.895 138.188 263.932 141.245 260.276 141.245Z" fill="#89AEFF"/>
<path d="M204.792 20.4446H143.148C142.051 20.4446 141.162 19.5273 141.162 18.3955C141.162 17.2638 142.051 16.3463 143.148 16.3463H204.792C205.89 16.3463 206.779 17.2638 206.779 18.3955C206.779 19.5273 205.89 20.4446 204.792 20.4446Z" fill="#D2DCFF"/>
<path d="M184.975 30.6683H143.148C142.051 30.6683 141.162 29.751 141.162 28.6192C141.162 27.4875 142.051 26.5699 143.148 26.5699H184.975C186.073 26.5699 186.962 27.4875 186.962 28.6192C186.962 29.751 186.073 30.6683 184.975 30.6683Z" fill="#D2DCFF"/>
<path d="M153.597 47.4182H142.581C141.797 47.4182 141.162 46.7633 141.162 45.9548C141.162 45.1463 141.797 44.4912 142.581 44.4912H153.597C154.381 44.4912 155.016 45.1463 155.016 45.9548C155.016 46.7633 154.381 47.4182 153.597 47.4182Z" fill="#6277D7"/>
<path d="M234.425 97.6806H200.38C199.597 97.6806 198.961 97.0255 198.961 96.217V90.3036C198.961 89.495 199.597 88.84 200.38 88.84H234.425C235.208 88.84 235.844 89.495 235.844 90.3036V96.217C235.844 97.0255 235.208 97.6806 234.425 97.6806Z" fill="#D2DCFF"/>
<path d="M248.143 113.751H200.381C199.597 113.751 198.962 113.096 198.962 112.287V106.374C198.962 105.565 199.597 104.91 200.381 104.91H248.143C248.927 104.91 249.562 105.565 249.562 106.374V112.287C249.562 113.096 248.926 113.751 248.143 113.751Z" fill="#D2DCFF"/>
<path d="M162.363 123.291C162.363 121.784 163.548 120.561 165.01 120.561C154.711 120.561 146.333 111.919 146.333 101.295C146.333 90.6723 154.711 82.0297 165.01 82.0297C175.309 82.0297 183.688 90.6723 183.688 101.295C183.688 99.7881 184.872 98.5654 186.334 98.5654C187.795 98.5654 188.981 99.7872 188.981 101.295C188.981 87.6619 178.228 76.5707 165.011 76.5707C151.794 76.5707 141.041 87.6619 141.041 101.295C141.041 114.929 151.794 126.02 165.011 126.02C163.549 126.021 162.363 124.798 162.363 123.291Z" fill="#D2DCFF"/>
<path d="M186.334 98.5662C184.873 98.5662 183.688 99.7881 183.688 101.296C183.688 111.919 175.309 120.562 165.01 120.562C163.549 120.562 162.364 121.785 162.364 123.292C162.364 124.799 163.548 126.022 165.01 126.022C178.228 126.022 188.98 114.93 188.98 101.297C188.98 99.7881 187.796 98.5662 186.334 98.5662Z" fill="#6277D7"/>
<path d="M351.655 46.4041H297.465C296.277 46.4041 295.315 47.3969 295.315 48.6221V104.518C295.315 105.744 296.277 106.736 297.465 106.736H351.655C352.842 106.736 353.805 105.744 353.805 104.518V48.6221C353.805 47.3969 352.842 46.4041 351.655 46.4041Z" fill="#89AEFF"/>
<path d="M332.938 46.4041H316.183V76.5708H332.938V46.4041Z" fill="#6277D7"/>
<path d="M304.776 232.309V231.124C304.776 230.758 304.488 230.46 304.132 230.46H277.469C276.124 230.46 275.033 231.585 275.033 232.972V234.993C275.033 236.382 276.124 237.506 277.469 237.506H304.132C304.487 237.506 304.776 237.209 304.776 236.843V235.658C304.776 235.292 304.488 234.994 304.132 234.994H278.448C277.907 234.994 277.468 234.542 277.468 233.984C277.468 233.426 277.907 232.973 278.448 232.973H304.132C304.488 232.972 304.776 232.675 304.776 232.309Z" fill="#6277D7"/>
<path d="M303.624 232.972V234.994H278.449C277.908 234.994 277.469 234.541 277.469 233.984C277.469 233.425 277.908 232.972 278.449 232.972H303.624Z" fill="#D2DCFF"/>
<path d="M302.871 225.263V224.077C302.871 223.711 302.583 223.413 302.228 223.413H279.374C278.029 223.413 276.939 224.538 276.939 225.926V227.947C276.939 229.334 278.029 230.459 279.374 230.459H302.228C302.583 230.459 302.871 230.162 302.871 229.795V228.609C302.871 228.243 302.583 227.946 302.228 227.946H280.354C279.813 227.946 279.374 227.493 279.374 226.936C279.374 226.377 279.813 225.925 280.354 225.925H302.228C302.583 225.926 302.871 225.629 302.871 225.263Z" fill="#FE9ECC"/>
<path d="M302.023 225.926V227.947H280.353C279.812 227.947 279.373 227.495 279.373 226.937C279.373 226.379 279.812 225.926 280.353 225.926H302.023Z" fill="#FFD9E8"/>
<path d="M283.5 242.156L269.372 359.981H266.567L280.695 242.156H283.5Z" fill="#D2DCFF"/>
<path d="M320.624 359.981H317.818L305.731 259.181L303.69 242.156H306.495L308.508 258.939L320.624 359.981Z" fill="#D2DCFF"/>
<path d="M142.824 242.156L139.045 273.68L128.696 359.981H125.891L136.209 273.927L140.019 242.156H142.824Z" fill="#D2DCFF"/>
<path d="M179.947 359.981H177.142L166.507 271.291L163.014 242.156H165.819L169.283 271.049L179.947 359.981Z" fill="#D2DCFF"/>
<path d="M140.019 242.156H142.824L139.045 273.68L136.209 273.927L140.019 242.156Z" fill="#AEC3FF"/>
<path d="M165.819 242.156L169.283 271.049L166.507 271.291L163.014 242.156H165.819Z" fill="#AEC3FF"/>
<path d="M308.508 258.939L305.731 259.181L303.69 242.156H306.495L308.508 258.939Z" fill="#AEC3FF"/>
<path d="M314.307 242.156H170.868V237.507H314.307C315.343 237.507 316.182 238.373 316.182 239.441V240.222C316.183 241.29 315.343 242.156 314.307 242.156Z" fill="#D2DCFF"/>
<path d="M170.868 242.156H132.915C131.879 242.156 131.04 241.29 131.04 240.222V239.441C131.04 238.373 131.879 237.507 132.915 237.507H170.868V242.156Z" fill="#86A2E2"/>
<path d="M170.836 226.199H183.419C184.039 226.199 184.52 226.758 184.447 227.393L183.383 236.565C183.321 237.102 182.879 237.506 182.355 237.506H171.901C171.377 237.506 170.935 237.102 170.873 236.565L169.809 227.393C169.735 226.759 170.216 226.199 170.836 226.199Z" fill="#D2DCFF"/>
<path d="M181.447 222.457V218.286L179.028 223.028V215.328L177.128 220.176L175.227 215.328V223.028L172.808 218.286V222.457L169.284 216.612L170.836 226.199H177.128H183.418L184.971 216.612L181.447 222.457Z" fill="#6277D7"/>
<path d="M272.183 225.594H193.466L202.242 176.796H280.959L272.183 225.594Z" fill="#D2DCFF"/>
<path d="M232.439 204.041H241.279L252.919 237.506H237.474L232.439 204.041Z" fill="#86A2E2"/>
<path d="M232.119 235.358H205.845C205.366 235.358 204.979 235.758 204.979 236.251V236.612C204.979 237.106 205.367 237.506 205.845 237.506H232.119C232.598 237.506 232.986 237.105 232.986 236.612V236.251C232.987 235.758 232.598 235.358 232.119 235.358Z" fill="#86A2E2"/>
<path d="M232.439 204.041V225.594H235.682L232.439 204.041Z" fill="#AEC3FF"/>
<path d="M109.697 100.41C98.8161 102.28 85.2589 98.1033 83.5591 95.4428C79.6199 101.635 77.6184 101.441 77.6184 101.441V106.085L76.729 105.167C76.4547 104.527 76.0191 103.892 75.3675 103.892C71.7849 103.892 71.5347 114.171 77.5644 114.765C77.6832 115.168 77.8062 115.544 77.9317 115.885V132.336H91.5321V125.866C92.4465 126.125 93.3226 126.273 94.1272 126.273C99.4894 126.273 108.627 118.14 109.663 105.166C109.725 102.719 109.697 100.41 109.697 100.41Z" fill="#FCBEB7"/>
<path d="M93.1887 82.8005C83.8093 82.8005 81.9332 87.9603 81.9332 87.9603C77.9309 87.9603 71.8031 95.5072 75.4929 103.892L75.512 103.911L77.6192 106.085V101.441C77.6192 101.441 79.6199 101.635 83.5599 95.4429C85.2597 98.1034 98.8177 102.28 109.698 100.41C109.698 100.41 109.726 102.719 109.663 105.167C109.663 105.17 109.663 105.172 109.663 105.175C113.726 93.0489 105.57 82.8005 93.1887 82.8005Z" fill="#311643"/>
<path d="M89.1556 108.709C88.7409 108.709 88.405 108.363 88.405 107.935V106.489C88.405 106.061 88.7409 105.715 89.1556 105.715C89.5704 105.715 89.9062 106.061 89.9062 106.489V107.935C89.9062 108.363 89.5696 108.709 89.1556 108.709Z" fill="#311643"/>
<path d="M103.069 108.709C102.654 108.709 102.318 108.363 102.318 107.935V106.489C102.318 106.061 102.654 105.715 103.069 105.715C103.483 105.715 103.819 106.061 103.819 106.489V107.935C103.819 108.363 103.483 108.709 103.069 108.709Z" fill="#311643"/>
<path d="M94.6725 117.744C93.3335 117.744 92.4216 117.224 91.8689 116.751C91.1723 116.154 90.883 115.503 90.8706 115.476C90.7924 115.298 90.8697 115.087 91.0426 115.007C91.2155 114.926 91.4183 115.006 91.4965 115.184C91.5355 115.271 92.4865 117.329 95.2503 116.999C95.4389 116.976 95.6093 117.115 95.631 117.311C95.6526 117.505 95.5179 117.681 95.3292 117.703C95.1007 117.731 94.8812 117.744 94.6725 117.744Z" fill="#311643"/>
<path d="M84.1742 115.127C86.2235 115.127 87.8847 113.413 87.8847 111.299C87.8847 109.186 86.2235 107.472 84.1742 107.472C82.1249 107.472 80.4636 109.186 80.4636 111.299C80.4636 113.413 82.1249 115.127 84.1742 115.127Z" fill="#F49795"/>
<path d="M109.277 108.122C108.807 110.692 108.019 113.036 107.022 115.122C105.059 115.021 103.499 113.349 103.499 111.299C103.499 109.186 105.16 107.473 107.209 107.473C107.975 107.472 108.686 107.711 109.277 108.122Z" fill="#F49795"/>
<path d="M103.069 99.6595C100.36 99.6595 98.1228 101.784 97.841 104.502C96.3681 103.787 95.0681 104.175 94.3823 104.5C94.0997 101.782 91.8638 99.6595 89.1557 99.6595C86.2564 99.6595 83.8982 102.092 83.8982 105.082C83.8982 108.073 86.2572 110.505 89.1557 110.505C91.9893 110.505 94.3059 108.18 94.4081 105.282C94.8437 105.028 96.2426 104.368 97.8153 105.287C97.92 108.182 100.236 110.505 103.068 110.505C105.967 110.505 108.325 108.072 108.325 105.082C108.326 102.093 105.968 99.6595 103.069 99.6595ZM89.1557 109.797C86.6354 109.797 84.5856 107.683 84.5856 105.083C84.5856 102.485 86.6354 100.369 89.1557 100.369C91.6751 100.369 93.7257 102.484 93.7257 105.083C93.7257 107.682 91.6751 109.797 89.1557 109.797ZM103.069 109.797C100.548 109.797 98.4986 107.683 98.4986 105.083C98.4986 102.485 100.548 100.369 103.069 100.369C105.589 100.369 107.639 102.484 107.639 105.083C107.639 107.682 105.589 109.797 103.069 109.797Z" fill="white"/>
<path d="M91.5315 132.336V125.866C88.456 124.994 84.9549 122.858 82.3232 120.822L91.5315 132.336Z" fill="#F9AFAB"/>
<path d="M124.041 341.291H109.638L85.4179 231.431L60.606 341.291H46.2018L59.6234 218.04L112.838 218.039L124.041 341.291Z" fill="#6277D7"/>
<path d="M110.781 347.264V357.764C110.781 358.988 111.743 359.981 112.93 359.981H141.802C142.076 359.981 142.299 359.751 142.299 359.468V357.447C142.299 356.563 141.808 355.757 141.037 355.373L124.757 347.265H110.781V347.264Z" fill="#2F3D6C"/>
<path d="M59.0389 347.264V357.764C59.0389 358.988 58.0764 359.981 56.8894 359.981H28.0178C27.7427 359.981 27.5208 359.751 27.5208 359.468V357.447C27.5208 356.563 28.0112 355.757 28.7825 355.373L45.062 347.265H59.0389V347.264Z" fill="#2F3D6C"/>
<path d="M109.638 341.291L110.722 347.264H124.758L124.041 341.291H109.638Z" fill="#FCBEB7"/>
<path d="M46.2016 341.291L45.0629 347.264H59.039L60.6058 341.291H46.2016Z" fill="#FCBEB7"/>
<path d="M59.335 220.683L113.364 223.832L112.838 218.039L59.6234 218.04" fill="#4A5EA3"/>
<path d="M109.313 164.921L112.838 218.039H59.6235L62.8844 180.188L62.1612 159.988L59.3991 162.828L47.1195 153.091L53.7177 141.999C55.3502 139.256 57.7084 137.051 60.5155 135.646L75.6511 128.068L76.2047 127.792L77.9328 126.926C77.9328 126.926 85.831 132.273 91.5091 126.926L94.5422 128.106L95.159 128.345L111.201 134.583C113.713 135.559 115.757 137.507 116.9 140.014L123.704 154.943L109.313 164.921Z" fill="#89AEFF"/>
<path d="M94.5412 128.107C91.9386 130.013 88.8365 131.04 85.5798 131.04C82.1494 131.04 78.8885 129.9 76.2045 127.792L75.6509 128.069C78.4712 130.363 81.9332 131.608 85.5806 131.608C89.0775 131.608 92.4041 130.464 95.1587 128.345L94.5412 128.107Z" fill="white"/>
<path d="M59.8544 137.457C59.8544 140.063 57.8063 142.174 55.2802 142.174C54.7507 142.174 54.2437 142.082 53.7708 141.911C55.2312 139.491 57.2602 137.495 59.6641 136.106C59.7879 136.534 59.8544 136.988 59.8544 137.457Z" fill="#4A62D3"/>
<path d="M62.6192 274.174C66.4272 274.174 69.5142 270.99 69.5142 267.062C69.5142 263.134 66.4272 259.95 62.6192 259.95C58.8112 259.95 55.7242 263.134 55.7242 267.062C55.7242 270.99 58.8112 274.174 62.6192 274.174Z" fill="#4A5EA3"/>
<path d="M108.616 274.174C112.424 274.174 115.511 270.99 115.511 267.062C115.511 263.134 112.424 259.95 108.616 259.95C104.808 259.95 101.721 263.134 101.721 267.062C101.721 270.99 104.808 274.174 108.616 274.174Z" fill="#4A5EA3"/>
<path d="M86.0104 211.007L42.6723 223.763C41.9591 223.973 41.216 223.547 41.0132 222.812L33.2446 194.731C33.0409 193.995 33.454 193.229 34.1672 193.02L77.5053 180.263C78.2185 180.053 78.9616 180.479 79.1645 181.215L86.933 209.296C87.1367 210.03 86.7236 210.797 86.0104 211.007Z" fill="#4A5EA3"/>
<path d="M101.64 163.644H90.0059C89.6193 163.644 89.3052 163.321 89.3052 162.922V140.484C89.3052 140.086 89.6185 139.762 90.0059 139.762H101.64C102.026 139.762 102.34 140.085 102.34 140.484V162.922C102.34 163.321 102.027 163.644 101.64 163.644Z" fill="#4A5EA3"/>
<path d="M133.402 178.592L123.703 154.943L116.301 160.047L105.904 150.648L103.778 143.132C103.748 142.892 103.566 142.703 103.334 142.672C102.315 142.533 101.441 143.418 101.557 144.471L101.922 147.764L98.0637 148.291C97.023 148.433 95.9649 148.339 94.9633 148.014L91.3732 146.85C90.2951 146.5 89.1489 147.13 88.8297 148.248L87.444 147.917C86.7674 147.756 86.09 148.179 85.9154 148.872L85.9054 148.91C85.7558 149.506 86.0235 150.129 86.553 150.414C86.2703 151.553 86.9262 152.717 88.0267 153.026L88.0583 153.035C87.7616 154.183 88.311 155.384 89.3592 155.878L92.0756 157.158C93.0972 157.64 94.2168 157.859 95.3381 157.795L101.509 157.277L122.463 185.528L122.467 185.533C124.321 187.814 127.481 188.599 130.189 187.292C133.359 185.764 134.782 181.913 133.402 178.592Z" fill="#FCBEB7"/>
<path d="M117.058 140.363C116.563 140.561 116.025 140.67 115.462 140.67C113.019 140.67 111.038 138.627 111.038 136.107C111.038 135.584 111.124 135.083 111.28 134.615C113.756 135.602 115.769 137.535 116.899 140.015L117.058 140.363Z" fill="#4A62D3"/>
<path d="M117.624 161.244L128.852 167.498L131.391 173.687L117.624 161.244Z" fill="#F9AFAB"/>
<path d="M59.5951 218.784L43.7006 190.213L47.0636 189.223L59.5951 218.784Z" fill="#2F3D6C"/>
<path d="M127.028 186.27C129.438 186.27 131.391 184.256 131.391 181.771C131.391 179.285 129.438 177.271 127.028 177.271C124.619 177.271 122.666 179.285 122.666 181.771C122.666 184.256 124.619 186.27 127.028 186.27Z" fill="#F9AFAB"/>
<path d="M44.1336 168.961C44.1336 171.284 42.5252 173.22 40.3931 173.646L39.6142 171.777C38.8312 169.9 38.9517 167.751 39.9392 165.98L40.8278 164.385C42.7396 164.972 44.1336 166.799 44.1336 168.961Z" fill="#F9AFAB"/>
<path d="M71.4515 213.61L66.0395 211.118C65.6646 210.946 65.3744 210.624 65.234 210.226L64.4493 207.997L67.184 208.689L68.056 210.621C68.3494 211.271 69.0909 211.563 69.7301 211.279L68.5913 207.733C68.3785 207.169 67.9679 206.708 67.4409 206.44L61.7262 203.541L51.868 170.558L59.3997 162.829L47.1201 153.091L39.94 165.981C38.9525 167.753 38.8328 169.901 39.615 171.778L59.5426 218.784L63.4976 218.971C63.973 218.994 64.4219 218.746 64.6663 218.325L65.0968 217.583L67.1782 217.759C67.6238 217.797 68.0568 217.594 68.3236 217.223L68.8132 216.541L69.105 216.621C69.9021 216.838 70.7392 216.463 71.129 215.713L72.5736 216.211C72.8995 215.176 72.4157 214.053 71.4515 213.61Z" fill="#FCBEB7"/>
<path d="M360 319.461H320.717V359.981H360V319.461Z" fill="#D2DCFF"/>
<path d="M320.717 319.461H299.078V359.981H320.717V319.461Z" fill="#AEC3FF"/>
<path d="M320.717 326.389H299.078V327.576H320.717V326.389Z" fill="#86A2E2"/>
<path d="M360 326.389H320.717V327.576H360V326.389Z" fill="#AEC3FF"/>
<path d="M347.586 333.377H333.131C332.856 333.377 332.634 333.147 332.634 332.864V332.834C332.634 332.551 332.856 332.322 333.131 332.322H347.586C347.86 332.322 348.083 332.551 348.083 332.834V332.864C348.083 333.148 347.86 333.377 347.586 333.377Z" fill="#86A2E2"/>
</svg>
